HIERARCHY
ROOT Hips
{
	OFFSET 0.000000 0.000000 0.000000
	CHANNELS 6 Xposition Yposition Zposition Xrotation Yrotation Zrotation
	JOINT LeftUpLeg_virtual
	{
		OFFSET 0.000000 0.000000 0.000000
		CHANNELS 3 Xrotation Yrotation Zrotation
		JOINT LeftUpLeg
		{
			OFFSET 10.205400 -3.823500 0.155100
			CHANNELS 3 Xrotation Yrotation Zrotation
			JOINT LeftLeg
			{
				OFFSET 0.708757 -12.982077 0.567790
				CHANNELS 3 Xrotation Yrotation Zrotation
				JOINT LeftFoot
				{
					OFFSET -0.708756 -10.717838 -2.184338
					CHANNELS 3 Xrotation Yrotation Zrotation
					JOINT LeftToeBase
					{
						OFFSET 0.108149 -7.191104 7.560241
						CHANNELS 3 Xrotation Yrotation Zrotation
						JOINT LeftToe_End
						{
							OFFSET 0.070230 0.081724 4.490308
							CHANNELS 3 Xrotation Yrotation Zrotation
							End Site
							{
								OFFSET 0 0 0
							}
						}
					}
				}
			}
		}
	}
	JOINT RightUpLeg_virtual
	{
		OFFSET 0.000000 0.000000 0.000000
		CHANNELS 3 Xrotation Yrotation Zrotation
		JOINT RightUpLeg
		{
			OFFSET -10.205400 -3.823500 0.005500
			CHANNELS 3 Xrotation Yrotation Zrotation
			JOINT RightLeg
			{
				OFFSET -0.708756 -12.982134 0.610632
				CHANNELS 3 Xrotation Yrotation Zrotation
				JOINT RightFoot
				{
					OFFSET 0.708754 -10.717769 -1.945823
					CHANNELS 3 Xrotation Yrotation Zrotation
					JOINT RightToeBase
					{
						OFFSET -0.108140 -7.191069 7.372968
						CHANNELS 3 Xrotation Yrotation Zrotation
						JOINT RightToe_End
						{
							OFFSET -0.070227 0.081735 4.479403
							CHANNELS 3 Xrotation Yrotation Zrotation
							End Site
							{
								OFFSET 0 0 0
							}
						}
					}
				}
			}
		}
	}
	JOINT Spine_virtual
	{
		OFFSET 0.000000 0.000000 0.000000
		CHANNELS 3 Xrotation Yrotation Zrotation
		JOINT Spine
		{
			OFFSET 0.000000 6.876099 0.125700
			CHANNELS 3 Xrotation Yrotation Zrotation
			JOINT Spine1
			{
				OFFSET 0.000000 5.730043 0.104720
				CHANNELS 3 Xrotation Yrotation Zrotation
				JOINT Spine1_split
				{
					OFFSET 0.000000 5.730043 0.104720
					CHANNELS 3 Xrotation Yrotation Zrotation
					JOINT Spine2
					{
						OFFSET 0.000000 5.730043 0.104720
						CHANNELS 3 Xrotation Yrotation Zrotation
						JOINT Neck_virtual
						{
							OFFSET 0.000000 0.000000 0.000000
							CHANNELS 3 Xrotation Yrotation Zrotation
							JOINT Neck
							{
								OFFSET 0.000000 10.314075 0.188496
								CHANNELS 3 Xrotation Yrotation Zrotation
								JOINT Head
								{
									OFFSET 0.000000 7.643700 -2.377400
									CHANNELS 3 Xrotation Yrotation Zrotation
									JOINT HeadTop_End
									{
										OFFSET 0.000000 43.788605 -13.619600
										CHANNELS 3 Xrotation Yrotation Zrotation
										End Site
										{
											OFFSET 0 0 0
										}
									}
								}
							}
						}
						JOINT LeftShoulder_virtual
						{
							OFFSET 0.000000 0.000000 0.000000
							CHANNELS 3 Xrotation Yrotation Zrotation
							JOINT LeftShoulder
							{
								OFFSET 2.196100 4.412489 0.087492
								CHANNELS 3 Xrotation Yrotation Zrotation
								JOINT LeftShoulder_split
								{
									OFFSET 2.196100 4.412489 0.087492
									CHANNELS 3 Xrotation Yrotation Zrotation
									JOINT LeftArm
									{
										OFFSET 8.771219 -2.981674 -0.026999
										CHANNELS 3 Xrotation Yrotation Zrotation
										JOINT LeftForeArm
										{
											OFFSET 8.512804 0.000000 -0.000000
											CHANNELS 3 Xrotation Yrotation Zrotation
											JOINT LeftHand
											{
												OFFSET 18.484802 0.000000 -0.000000
												CHANNELS 3 Xrotation Yrotation Zrotation
												End Site
												{
													OFFSET 0 0 0
												}
											}
										}
									}
								}
							}
						}
						JOINT RightShoulder_virtual
						{
							OFFSET 0.000000 0.000000 0.000000
							CHANNELS 3 Xrotation Yrotation Zrotation
							JOINT RightShoulder
							{
								OFFSET -2.196100 4.412496 0.070690
								CHANNELS 3 Xrotation Yrotation Zrotation
								JOINT RightShoulder_split
								{
									OFFSET -2.196100 4.412496 0.070690
									CHANNELS 3 Xrotation Yrotation Zrotation
									JOINT RightArm
									{
										OFFSET -8.771282 -2.981682 -0.094208
										CHANNELS 3 Xrotation Yrotation Zrotation
										JOINT RightForeArm
										{
											OFFSET -8.494598 0.000000 0.000000
											CHANNELS 3 Xrotation Yrotation Zrotation
											JOINT RightHand
											{
												OFFSET -18.483803 0.000000 0.000001
												CHANNELS 3 Xrotation Yrotation Zrotation
												End Site
												{
													OFFSET 0 0 0
												}
											}
										}
									}
								}
							}
						}
					}
				}
			}
		}
	}
}
MOTION
Frames: 8
Frame Time: 0.03333333
1.739739 29.349339 0.528831 0.000000 0.000000 0.000000 7.815890 -11.658330 1.844983 -49.705523 4.675259 21.122427 42.362647 4.950990 6.956682 0.858181 1.105252 -22.756843 0.904225 0.872374 -0.326281 0.000000 0.000000 0.000000 7.237629 -11.651019 2.074060 -21.395740 -2.892404 -38.052131 31.665225 0.988566 -0.680369 -16.083627 -9.111147 34.772940 0.516223 0.779828 -0.833579 0.000000 0.000000 0.000000 8.611028 -10.130319 1.520716 8.051470 2.870864 -2.205648 6.271998 1.634028 -1.222646 0.459522 1.974935 0.373710 0.000000 0.000000 0.000000 6.416742 1.263357 -0.526785 -1.850948 -0.049734 -3.300334 -10.812468 -3.521768 4.406930 0.000000 0.000000 0.000000 6.054824 1.688561 -1.028266 5.314668 -36.237166 3.773670 -2.325028 -3.544281 -1.387203 -77.520427 -33.759344 -28.147749 -0.131355 -23.941570 1.520217 0.000000 0.000000 0.000000 5.467790 1.493289 -0.678896 5.381057 28.398907 -19.651446 2.407537 -0.482317 1.556201 -38.249637 30.317024 12.479719 0.826054 39.671808 -0.518675 0.000000 0.000000 0.000000 
1.826578 29.267128 0.588133 0.000000 0.000000 0.000000 8.107764 -11.336984 1.631562 -50.776798 4.576001 21.259109 43.226341 4.809575 6.820096 0.304135 0.806467 -22.470598 0.947223 0.857882 -0.315315 0.000000 0.000000 0.000000 7.466116 -11.397093 1.852791 -21.676930 -2.910611 -38.060225 32.068571 1.003102 -0.775312 -16.287279 -9.450414 34.778842 0.708073 0.828914 -0.872557 0.000000 0.000000 0.000000 9.067730 -10.135307 1.331386 8.094839 2.647663 -2.253041 6.218892 1.362460 -1.254307 0.539571 2.203045 0.315820 0.000000 0.000000 0.000000 6.279103 1.017218 -0.571188 -2.591152 -0.324506 -2.623608 -11.115621 -3.700958 4.868081 0.000000 0.000000 0.000000 5.917394 1.505422 -1.125339 5.198620 -36.557754 3.987742 -0.890576 -3.798334 -0.835067 -76.763683 -33.847996 -26.848907 -0.191574 -23.654024 1.648026 0.000000 0.000000 0.000000 5.552026 1.386895 -0.766540 5.034460 28.746357 -19.534648 2.758644 -1.196002 1.532528 -40.748208 28.325670 13.858524 0.751846 41.135350 -0.338447 0.000000 0.000000 0.000000 
1.896083 29.173594 0.653906 0.000000 0.000000 0.000000 8.311733 -10.987409 1.370690 -51.667704 4.527324 21.433508 43.955648 4.698870 6.777382 -0.359611 0.636092 -22.114423 0.944986 0.847081 -0.324786 0.000000 0.000000 0.000000 7.654532 -11.026387 1.567789 -21.767287 -2.942914 -38.049560 32.342640 0.921101 -0.894620 -16.613236 -9.831264 34.653214 0.945956 0.849572 -0.837830 0.000000 0.000000 0.000000 9.440263 -10.141296 1.121898 8.158796 2.456700 -2.174106 6.235593 1.180756 -1.243558 0.737632 2.095473 0.265229 0.000000 0.000000 0.000000 6.145717 0.849044 -0.614688 -3.560634 -0.701767 -1.759870 -11.376755 -3.753323 5.252207 0.000000 0.000000 0.000000 5.956017 1.326200 -1.201049 4.959658 -36.535071 3.857895 0.090597 -3.768405 -0.400291 -76.160298 -34.106126 -26.456495 -0.500602 -22.760050 1.481663 0.000000 0.000000 0.000000 5.745166 1.382329 -0.802747 4.505561 28.628330 -18.805010 2.807342 -1.449711 1.259173 -42.782819 27.285581 15.525954 0.730862 41.243489 -0.268515 0.000000 0.000000 0.000000 
1.954181 29.078819 0.713655 0.000000 0.000000 0.000000 8.387833 -10.734636 1.088446 -52.289066 4.524665 21.660237 44.519651 4.640683 6.813768 -1.012401 0.583086 -21.736162 0.810282 0.844182 -0.328094 0.000000 0.000000 0.000000 7.793859 -10.672344 1.269163 -21.756640 -2.987049 -38.047787 32.464668 0.795054 -1.022467 -16.921006 -10.145475 34.502660 1.171503 0.841697 -0.741959 0.000000 0.000000 0.000000 9.644750 -10.170368 0.930858 8.227858 2.342103 -2.004198 6.308354 1.135028 -1.202893 0.932583 1.991785 0.166190 0.000000 0.000000 0.000000 6.043064 0.804946 -0.658205 -4.651024 -1.127101 -1.001848 -11.528700 -3.686634 5.522588 0.000000 0.000000 0.000000 6.139060 1.199774 -1.239613 4.690299 -36.241718 3.669593 0.497668 -3.375680 -0.297125 -76.001475 -34.896181 -26.774051 -0.914021 -21.667150 1.126712 0.000000 0.000000 0.000000 6.018146 1.462373 -0.793917 3.982437 28.212716 -17.904685 2.533515 -1.337847 0.767114 -43.654341 27.614373 16.845258 0.862388 39.857986 -0.403769 0.000000 0.000000 0.000000 
2.011331 28.999578 0.759487 0.000000 0.000000 0.000000 8.350479 -10.613367 0.830159 -52.627185 4.562175 21.906462 44.915737 4.598853 6.894071 -1.553586 0.576196 -21.431064 0.617280 0.849043 -0.315067 0.000000 0.000000 0.000000 7.832142 -10.466540 1.004339 -21.663974 -3.046950 -38.063825 32.343381 0.668136 -1.141953 -17.138862 -10.317569 34.451744 1.334614 0.817021 -0.624594 0.000000 0.000000 0.000000 9.652996 -10.234315 0.790710 8.282684 2.312867 -1.806557 6.398678 1.229764 -1.169422 1.022019 1.968208 -0.054915 0.000000 0.000000 0.000000 5.983472 0.876533 -0.701151 -5.725848 -1.486653 -0.609820 -11.514394 -3.508722 5.640379 0.000000 0.000000 0.000000 6.373991 1.171580 -1.231654 4.446392 -35.841831 3.580176 0.709930 -2.890193 -0.491314 -75.962809 -35.970949 -27.338131 -1.302124 -21.233270 0.755369 0.000000 0.000000 0.000000 6.275966 1.580298 -0.784703 3.600205 27.622523 -17.188021 2.116698 -1.119358 0.278045 -43.285129 28.897772 17.698716 1.095093 37.933105 -0.699480 0.000000 0.000000 0.000000 
2.071406 28.955170 0.774199 0.000000 0.000000 0.000000 8.230938 -10.663952 0.633027 -52.715089 4.608892 22.116472 45.110497 4.549153 6.990573 -1.920304 0.540161 -21.247574 0.506208 0.860717 -0.286954 0.000000 0.000000 0.000000 7.782826 -10.420552 0.808713 -21.473292 -3.135852 -38.062213 31.957892 0.558963 -1.254457 -17.262770 -10.353873 34.512051 1.394198 0.787343 -0.530043 0.000000 0.000000 0.000000 9.522900 -10.307820 0.716036 8.287834 2.343117 -1.644038 6.459074 1.406803 -1.166766 0.748813 2.091176 -0.281148 0.000000 0.000000 0.000000 5.953706 1.037408 -0.756568 -6.619337 -1.677300 -0.682452 -11.254562 -3.275729 5.608471 0.000000 0.000000 0.000000 6.570327 1.236325 -1.206561 4.219716 -35.520382 3.549018 0.814445 -2.542702 -0.657914 -75.662117 -36.760536 -27.577328 -1.459805 -21.896292 0.534225 0.000000 0.000000 0.000000 6.464844 1.680062 -0.794024 3.391968 26.906649 -16.862113 1.450715 -1.093120 -0.204380 -41.875603 30.154650 18.018141 1.424682 36.622498 -1.119603 0.000000 0.000000 0.000000 
2.126548 28.960247 0.775261 0.000000 0.000000 0.000000 8.088238 -10.849503 0.513549 -52.615454 4.670350 22.242892 45.124680 4.485891 7.075135 -2.130992 0.444977 -21.196580 0.575640 0.878005 -0.250560 0.000000 0.000000 0.000000 7.689169 -10.517567 0.693296 -21.135040 -3.265163 -37.980968 31.358187 0.435584 -1.354725 -17.306694 -10.332664 34.587033 1.354700 0.763859 -0.484406 0.000000 0.000000 0.000000 9.332576 -10.391656 0.681346 8.216635 2.408361 -1.557231 6.478847 1.597569 -1.207640 0.368523 2.238571 -0.460989 0.000000 0.000000 0.000000 5.928219 1.205928 -0.841269 -7.200241 -1.649261 -1.161261 -10.762636 -3.113370 5.482611 0.000000 0.000000 0.000000 6.686122 1.347311 -1.210010 4.067696 -35.518234 3.593970 1.040205 -2.258709 -0.549099 -75.283308 -37.210509 -27.536008 -1.339244 -23.125240 0.505431 0.000000 0.000000 0.000000 6.585142 1.737821 -0.832285 3.251705 26.127955 -16.899073 0.857190 -1.292217 -0.571068 -40.174848 30.738344 18.174899 1.742329 36.605777 -1.547504 0.000000 0.000000 0.000000 
2.174126 29.010477 0.756395 0.000000 0.000000 0.000000 7.959363 -11.144806 0.472519 -52.346307 4.775687 22.272912 44.954577 4.428368 7.151760 -2.227015 0.300683 -21.299851 0.791949 0.899106 -0.197756 0.000000 0.000000 0.000000 7.540539 -10.737026 0.640186 -20.688476 -3.386101 -37.788991 30.672672 0.272497 -1.434994 -17.289244 -10.324568 34.591175 1.268083 0.743017 -0.488027 0.000000 0.000000 0.000000 9.147646 -10.514066 0.654593 8.117649 2.476613 -1.551539 6.487351 1.745720 -1.290682 0.280205 2.291551 -0.605569 0.000000 0.000000 0.000000 5.894492 1.332568 -0.950283 -7.434756 -1.426464 -1.824796 -10.141809 -2.998794 5.250345 0.000000 0.000000 0.000000 6.747907 1.450218 -1.257305 3.967352 -36.008484 3.566576 1.189065 -2.145825 -0.223023 -74.623635 -36.991017 -26.898924 -1.070449 -23.883005 0.648282 0.000000 0.000000 0.000000 6.646049 1.729127 -0.897458 3.139269 25.355283 -17.151937 0.324069 -1.575496 -0.802536 -39.225049 30.505776 18.935113 1.977992 37.391119 -1.882873 0.000000 0.000000 0.000000 
